<svg xmlns="http://www.w3.org/2000/svg" viewBox="0 0 320 380" fill="none">
  <!-- Soft background blobs -->
  <ellipse cx="160" cy="200" rx="140" ry="160" fill="#10B981" opacity="0.08"/>
  <circle cx="80" cy="100" r="40" fill="#34D399" opacity="0.12"/>
  <circle cx="240" cy="280" r="50" fill="#10B981" opacity="0.10"/>

  <!-- Steering wheel -->
  <circle cx="160" cy="190" r="92" fill="none" stroke="#FFFFFF" stroke-width="6"/>
  <circle cx="160" cy="190" r="32" fill="#FFFFFF"/>
  <circle cx="160" cy="190" r="18" fill="#047857"/>
  <path d="M160 158V120" stroke="#FFFFFF" stroke-width="6" stroke-linecap="round"/>
  <path d="M160 222v40" stroke="#FFFFFF" stroke-width="6" stroke-linecap="round"/>
  <path d="M128 190h-40" stroke="#FFFFFF" stroke-width="6" stroke-linecap="round"/>
  <path d="M192 190h40" stroke="#FFFFFF" stroke-width="6" stroke-linecap="round"/>

  <!-- Heart in center -->
  <path d="M160 184c-3-4-8-6-13-3-5 3-6 9-2 14l15 16 15-16c4-5 3-11-2-14-5-3-10-1-13 3z" fill="#10B981"/>

  <!-- Sparkles -->
  <g fill="#FFFFFF" opacity="0.9">
    <circle cx="70" cy="60" r="3"/>
    <circle cx="270" cy="80" r="4"/>
    <circle cx="50" cy="320" r="3"/>
    <circle cx="280" cy="330" r="2.5"/>
    <path d="M280 130l4 0 0 4 -4 0z" opacity="0.6"/>
    <path d="M40 200l3 0 0 3 -3 0z" opacity="0.6"/>
  </g>
</svg>
