<svg xmlns="http://www.w3.org/2000/svg" viewBox="0 0 80 80" fill="none">
  <defs>
    <linearGradient id="tp2-red" x1="0" y1="0" x2="0" y2="1">
      <stop offset="0%" stop-color="#E0556B"/>
      <stop offset="55%" stop-color="#CC1C2E"/>
      <stop offset="100%" stop-color="#970F23"/>
    </linearGradient>
  </defs>
  <circle cx="40" cy="40" r="38" fill="#F4F5F8"/>
  <circle cx="40" cy="40" r="38" fill="none" stroke="#CC1C2E" stroke-width="2"/>
  <path d="M10 42 Q14 30 26 26 L34 24 Q42 22 50 24 L58 26 Q66 30 70 42 L70 48 L10 48 Z" fill="url(#tp2-red)"/>
  <path d="M22 36 Q26 28 34 26 L50 26 Q58 28 62 36 L62 40 L22 40 Z" fill="#FDF1F3" opacity="0.4"/>
  <ellipse cx="65" cy="40" rx="2.5" ry="1.5" fill="#FDF1F3" opacity="0.85"/>
  <circle cx="22" cy="50" r="5.5" fill="#1B2849"/>
  <circle cx="22" cy="50" r="2" fill="#FDF1F3"/>
  <circle cx="58" cy="50" r="5.5" fill="#1B2849"/>
  <circle cx="58" cy="50" r="2" fill="#FDF1F3"/>
  <path d="M14 60 Q40 55 66 60 L62 65 Q40 60 18 65 Z" fill="url(#tp2-red)"/>
  <path d="M36 60 L44 59 L42 62 L34 63 Z" fill="#FDF1F3" opacity="0.85"/>
</svg>
